<?xml version="1.0" encoding="utf-8"?>
<!-- Generator: Adobe Illustrator 16.0.0, SVG Export Plug-In . SVG Version: 6.00 Build 0)  -->
<!DOCTYPE svg PUBLIC "-//W3C//DTD SVG 1.1//EN" "http://www.w3.org/Graphics/SVG/1.1/DTD/svg11.dtd">
<svg version="1.1" id="Layer_1" xmlns="http://www.w3.org/2000/svg" xmlns:xlink="http://www.w3.org/1999/xlink" x="0px" y="0px"
	 width="25.92px" height="18px" viewBox="0 0 25.92 18" enable-background="new 0 0 25.92 18" xml:space="preserve">
<g>
	<g>
		<defs>
			<rect id="SVGID_1_" width="25.92" height="18"/>
		</defs>
		<clipPath id="SVGID_2_">
			<use xlink:href="#SVGID_1_"  overflow="visible"/>
		</clipPath>
		<path clip-path="url(#SVGID_2_)" fill="#FFFFFF" d="M16.965,0.266c-0.344-0.355-0.914-0.355-1.27,0
			c-0.344,0.344-0.344,0.914,0,1.258l6.438,6.437H0.891C0.395,7.961,0,8.356,0,8.852c0,0.492,0.395,0.902,0.891,0.902h21.242
			l-6.438,6.422c-0.344,0.356-0.344,0.93,0,1.271c0.355,0.354,0.926,0.354,1.27,0l7.961-7.961c0.355-0.345,0.355-0.915,0-1.254
			L16.965,0.266z M16.965,0.266"/>
	</g>
</g>
</svg>
